<svg xmlns="http://www.w3.org/2000/svg" width="238.316" height="226.559" viewBox="0 0 238.316 226.559">
  <g id="Groupe_5" data-name="Groupe 5" transform="translate(-179.684 -232.441)">
    <g id="Groupe_4" data-name="Groupe 4">
      <g id="Soustraction_1" data-name="Soustraction 1" transform="translate(210 250)">
        <path d="M 168.2147674560547 165.4996032714844 L 27.78543472290039 165.4996032714844 C 23.29770088195801 161.0300903320312 19.22052764892578 156.1142730712891 15.66412448883057 150.8849792480469 C 12.03537464141846 145.5493011474609 8.918224334716797 139.8417053222656 6.399299144744873 133.920654296875 C 3.833849191665649 127.8902587890625 1.863424181938171 121.5774536132812 0.5427241921424866 115.1576309204102 C -0.8126007914543152 108.5695571899414 -1.499800801277161 101.7876815795898 -1.499800801277161 95.00040435791016 C -1.499800801277161 88.24908447265625 -0.8196758031845093 81.50218200683594 0.5216991901397705 74.94712829589844 C 1.828949213027954 68.55875396728516 3.779499292373657 62.27505493164062 6.319174289703369 56.27053070068359 C 8.812873840332031 50.374755859375 11.89934921264648 44.68828201293945 15.49289894104004 39.36910629272461 C 19.05239868164062 34.10030746459961 23.14027404785156 29.14568138122559 27.64302444458008 24.64288139343262 C 32.14574813842773 20.14008140563965 37.10032272338867 16.05213165283203 42.36907577514648 12.49258041381836 C 47.68830108642578 8.898930549621582 53.37469863891602 5.812406063079834 59.27034759521484 3.31873083114624 C 65.27482604980469 0.7790058851242065 71.55850219726562 -1.171594142913818 77.94684600830078 -2.478869199752808 C 84.50192260742188 -3.820244073867798 91.24882507324219 -4.500394344329834 98.00009918212891 -4.500394344329834 C 104.7513732910156 -4.500394344329834 111.4982757568359 -3.820244073867798 118.053352355957 -2.478869199752808 C 124.4416961669922 -1.171594142913818 130.7253723144531 0.7790058851242065 136.7298431396484 3.31873083114624 C 142.6255035400391 5.812406063079834 148.3119049072266 8.898930549621582 153.6311187744141 12.49258041381836 C 158.8998718261719 16.05213165283203 163.8544464111328 20.14008140563965 168.357177734375 24.64288139343262 C 172.8599243164062 29.14568138122559 176.9477996826172 34.10030746459961 180.5072784423828 39.36910629272461 C 184.1008453369141 44.68828201293945 187.1873168945312 50.374755859375 189.6810302734375 56.27053070068359 C 192.220703125 62.27505493164062 194.1712493896484 68.55875396728516 195.4785003662109 74.94710540771484 C 196.8198699951172 81.50218200683594 197.5 88.24908447265625 197.5 95.00040435791016 C 197.5 101.7876815795898 196.8128051757812 108.5695571899414 195.4574737548828 115.1576309204102 C 194.1367797851562 121.5774536132812 192.1663513183594 127.8902587890625 189.6009063720703 133.920654296875 C 187.0819702148438 139.8417053222656 183.9648284912109 145.5493011474609 180.3360748291016 150.8849792480469 C 176.7796478271484 156.1143035888672 172.7024688720703 161.0301208496094 168.2147674560547 165.4996032714844 Z" stroke="none"/>
        <path d="M 168.0079345703125 164.9996032714844 C 172.4156036376953 160.5914764404297 176.4226226806641 155.7501831054688 179.9226226806641 150.6037750244141 C 183.5331268310547 145.2949981689453 186.6345672607422 139.6161193847656 189.1408386230469 133.7249145507812 C 191.6932525634766 127.7250747680664 193.6537322998047 121.4442291259766 194.9677276611328 115.056884765625 C 196.3162536621094 108.5019378662109 197 101.7539672851562 197 95.00041198730469 C 197 88.28260040283203 196.3232879638672 81.56941223144531 194.9886474609375 75.04736328125 C 193.6880187988281 68.6912841796875 191.7473297119141 62.43938827514648 189.2205200195312 56.46530914306641 C 186.7394104003906 50.5992546081543 183.6684722900391 44.94144058227539 180.0929718017578 39.64899444580078 C 176.5513153076172 34.40657043457031 172.4838562011719 29.47673034667969 168.0036315917969 24.99644088745117 C 163.5233612060547 20.5161247253418 158.5935974121094 16.44859886169434 153.3512115478516 12.90691375732422 C 148.0587310791016 9.331335067749023 142.4009704589844 6.260334968566895 136.5350799560547 3.779229640960693 C 130.5609893798828 1.252361178398132 124.3091278076172 -0.68837571144104 117.953125 -1.989007353782654 C 111.4309387207031 -3.323665142059326 104.7177810668945 -4.000401973724365 98.00009918212891 -4.000401973724365 C 91.28241729736328 -4.000401973724365 84.56925964355469 -3.323665142059326 78.04707336425781 -1.989007353782654 C 71.69107055664062 -0.68837571144104 65.43920135498047 1.252361178398132 59.46512603759766 3.779229640960693 C 53.5992317199707 6.260334968566895 47.94146728515625 9.331335067749023 42.64899444580078 12.90691375732422 C 37.40660095214844 16.44859886169434 32.47683715820312 20.5161247253418 27.99657249450684 24.99644088745117 C 23.51633644104004 29.47673034667969 19.44888877868652 34.40657043457031 15.90723037719727 39.64901733398438 C 12.33175754547119 44.94144058227539 9.260809898376465 50.5992546081543 6.779678344726562 56.46530914306641 C 4.252862453460693 62.43941497802734 2.312178134918213 68.69130706787109 1.01157283782959 75.04736328125 C -0.3230850398540497 81.56949615478516 -0.9997955560684204 88.28267669677734 -0.9997955560684204 95.00041198730469 C -0.9997955560684204 101.7538604736328 -0.3160587251186371 108.5018310546875 1.032467603683472 115.056884765625 C 2.3464674949646 121.4441528320312 4.306914806365967 127.7249908447266 6.859388828277588 133.7249145507812 C 9.365677833557129 139.6161956787109 12.46712589263916 145.2950744628906 16.07757377624512 150.6037750244141 C 19.57751655578613 155.7501068115234 23.58453941345215 160.5914001464844 27.99226760864258 164.9996032714844 L 168.0079345703125 164.9996032714844 M 168.4206848144531 165.9999084472656 L 168.4209747314453 165.9996032714844 L 27.57923126220703 165.9996032714844 C 23.01091575622559 161.4685974121094 18.86320495605469 156.4779968261719 15.25067806243896 151.1661529541016 C 11.60365200042725 145.8036499023438 8.47083568572998 140.0672607421875 5.939204216003418 134.1163940429688 C 3.360809803009033 128.0555114746094 1.380362391471863 121.7107543945312 0.05296760424971581 115.2583847045898 C -1.30913770198822 108.63720703125 -1.99979555606842 101.8214645385742 -1.99979555606842 95.00041198730469 C -1.99979555606842 88.21546936035156 -1.316242933273315 81.43483734130859 0.03186234086751938 74.84688568115234 C 1.345704436302185 68.42620086669922 3.306125402450562 62.11067581176758 5.858678340911865 56.07575607299805 C 8.364914894104004 50.15033340454102 11.46694087982178 44.43520355224609 15.07859897613525 39.08920288085938 C 18.65591430664062 33.79399108886719 22.76425743103027 28.81459808349609 27.28946685791016 24.28933525085449 C 31.81465148925781 19.76407241821289 36.79396820068359 15.65567684173584 42.08917999267578 12.07828235626221 C 47.43517684936523 8.466545104980469 53.1502571105957 5.364466190338135 59.0755729675293 2.858229637145996 C 65.11051940917969 0.3055979609489441 71.42599487304688 -1.654849410057068 77.84659576416016 -2.968717813491821 C 84.43462371826172 -4.316849231719971 91.21525573730469 -5.000401973724365 98.00009918212891 -5.000401973724365 C 104.7849426269531 -5.000401973724365 111.5655746459961 -4.316849231719971 118.1536026000977 -2.968717813491821 C 124.5742034912109 -1.654849410057068 130.8896789550781 0.3055979609489441 136.9246215820312 2.858229637145996 C 142.8499450683594 5.364466190338135 148.5650177001953 8.466545104980469 153.9110260009766 12.07828235626221 C 159.2062377929688 15.65567684173584 164.185546875 19.76407241821289 168.7107238769531 24.28933525085449 C 173.2359466552734 28.81459808349609 177.3442840576172 33.79399108886719 180.9216003417969 39.08920288085938 C 184.5332794189453 44.43520355224609 187.6353149414062 50.15033340454102 190.1415252685547 56.07575607299805 C 192.6940765380859 62.11067581176758 194.6544952392578 68.42620086669922 195.9683685302734 74.84688568115234 C 197.3164672851562 81.43483734130859 198 88.21546936035156 198 95.00041198730469 C 198 101.8214645385742 197.3093566894531 108.63720703125 195.9472351074219 115.2583847045898 C 194.6198425292969 121.7107543945312 192.6394195556641 128.0555114746094 190.0610198974609 134.1163940429688 C 187.5293884277344 140.0672607421875 184.3965454101562 145.8036499023438 180.7495269775391 151.1661529541016 C 177.1367340087891 156.4783935546875 172.9888153076172 161.4691009521484 168.4209747314453 165.9996032714844 L 168.4206848144531 165.9999084472656 Z" stroke="none" fill="#000"/>
      </g>
      <g id="Groupe_3" data-name="Groupe 3" transform="matrix(0.839, -0.545, 0.545, 0.839, -132.789, 240.446)">
        <g id="Groupe_2" data-name="Groupe 2" transform="translate(207.582 257.888)">
          <line id="Ligne_1" data-name="Ligne 1" x2="200.418" fill="none" stroke="#fff" stroke-linecap="round" stroke-width="3"/>
          <line id="Ligne_2" data-name="Ligne 2" x2="165.05" transform="translate(18.863 33.01)" fill="none" stroke="#fff" stroke-linecap="round" stroke-width="3"/>
        </g>
        <g id="Groupe_1" data-name="Groupe 1" transform="translate(237.022 263.782)">
          <g id="Rectangle_2" data-name="Rectangle 2" transform="translate(5.421 0)" fill="#fff" stroke="#000" stroke-width="3">
            <rect width="21.221" height="21.221" stroke="none"/>
            <rect x="1.5" y="1.5" width="18.221" height="18.221" fill="none"/>
          </g>
          <g id="Rectangle_4" data-name="Rectangle 4" transform="translate(33.283 0)" fill="#fff" stroke="#000" stroke-width="3">
            <rect width="21.221" height="21.221" stroke="none"/>
            <rect x="1.5" y="1.5" width="18.221" height="18.221" fill="none"/>
          </g>
          <g id="Tracé_6" data-name="Tracé 6" transform="translate(59.884 0)" fill="#fff">
            <path d="M21.221,21.221h0Z" stroke="none"/>
            <path d="M 3.814697265625e-06 21.22072601318359 L 21.22072219848633 21.22072601318359 L 3.814697265625e-06 21.22072601318359 Z" stroke="none" fill="#000"/>
          </g>
          <g id="Rectangle_6" data-name="Rectangle 6" transform="translate(61.144 0)" fill="#fff" stroke="#000" stroke-width="3">
            <rect width="21.221" height="21.221" stroke="none"/>
            <rect x="1.5" y="1.5" width="18.221" height="18.221" fill="none"/>
          </g>
          <g id="Rectangle_7" data-name="Rectangle 7" transform="translate(115.967 0)" fill="#fff" stroke="#000" stroke-width="3">
            <rect width="21.221" height="21.221" stroke="none"/>
            <rect x="1.5" y="1.5" width="18.221" height="18.221" fill="none"/>
          </g>
          <g id="Rectangle_8" data-name="Rectangle 8" transform="translate(88.106 0)" fill="#fff" stroke="#000" stroke-width="3">
            <rect width="21.221" height="21.221" stroke="none"/>
            <rect x="1.5" y="1.5" width="18.221" height="18.221" fill="none"/>
          </g>
        </g>
      </g>
      <g id="d06de114f2c1d68a9a7bd60f8739d85a" transform="translate(235.479 327.277)">
        <path id="Tracé_3" data-name="Tracé 3" d="M3.611,76.937A2.358,2.358,0,0,1,2.1,72.768L33.713,46.41a2.358,2.358,0,0,1,2.594-.29l11.207,5.725L57.523,42.2a2.358,2.358,0,0,1,1.636-.66H65.5L77.251,21.093a2.358,2.358,0,0,1,1.82-1.179,2.4,2.4,0,0,1,2.009.8L103.225,46.3l9.314-7.5a2.358,2.358,0,0,1,3.249.278L145.667,73.02a2.358,2.358,0,1,1-3.537,3.117L113.746,43.9l-9.328,7.507a2.358,2.358,0,0,1-3.261-.292l-21.48-24.8L68.9,45.07a2.358,2.358,0,0,1-2.044,1.179H60.1L49.565,56.4a2.358,2.358,0,0,1-2.709.4L35.538,51.022,5.12,76.39a2.358,2.358,0,0,1-1.509.547Z" transform="translate(-1.251 -19.9)" fill="#fff"/>
        <path id="Tracé_4" data-name="Tracé 4" d="M63.254,73.964a2.358,2.358,0,0,1-1.092-4.449l21.39-11.153,10.2-18.83A2.358,2.358,0,1,1,97.9,41.779L87.351,61.243a2.358,2.358,0,0,1-.983.967L64.338,73.7A2.358,2.358,0,0,1,63.254,73.964Zm-41.1,1.217A2.358,2.358,0,0,1,19.8,72.587l1.148-11.6L14.918,49.3a2.358,2.358,0,1,1,4.19-2.165l6.352,12.3a2.358,2.358,0,0,1,.252,1.313L25.2,65.91,40.13,49.346a2.358,2.358,0,0,1,3.836.472l5.315,10.056L54.74,47.74,58.748,21.9a2.359,2.359,0,1,1,4.661.724L59.354,48.777a2.268,2.268,0,0,1-.179.606L51.606,66.211A2.358,2.358,0,0,1,49.531,67.6a2.266,2.266,0,0,1-2.16-1.254L41.38,55,23.911,74.4a2.358,2.358,0,0,1-1.752.778Z" transform="translate(16.948 -19.903)" fill="#fff"/>
        <path id="Tracé_5" data-name="Tracé 5" d="M39.66,47.555a2.358,2.358,0,0,1-1.467-4.206L52.529,31.993a2.361,2.361,0,1,1,2.928,3.7L41.131,47.053A2.358,2.358,0,0,1,39.66,47.555Z" transform="translate(47.696 -4.177)" fill="#fff"/>
      </g>
      <text id="FILMS_SERIES" data-name="FILMS &amp; SERIES" transform="translate(308 448)" font-size="30" font-family="Poppins-Bold, Poppins" font-weight="700"><tspan x="-109.995" y="0">FILMS &amp; SERIES</tspan></text>
    </g>
  </g>
</svg>
